<?xml version="1.0" standalone="no"?>
<!DOCTYPE svg PUBLIC "-//W3C//DTD SVG 20010904//EN"
 "http://www.w3.org/TR/2001/REC-SVG-20010904/DTD/svg10.dtd">
<svg version="1.0" xmlns="http://www.w3.org/2000/svg"
 width="800.000000pt" height="800.000000pt" viewBox="0 0 800.000000 800.000000"
 preserveAspectRatio="xMidYMid meet">

<g transform="translate(0.000000,800.000000) scale(0.100000,-0.100000)"
fill="#000000" stroke="none">
<path d="M0 4000 l0 -4000 4000 0 4000 0 0 4000 0 4000 -4000 0 -4000 0 0
-4000z m3810 2627 c0 -7 -26 -31 -57 -55 -89 -64 -273 -248 -273 -271 0 -6 -4
-11 -8 -11 -11 0 -68 -81 -77 -109 -3 -11 -10 -21 -15 -21 -4 0 -13 -12 -19
-27 -5 -16 -16 -39 -24 -53 -38 -69 -57 -110 -57 -123 0 -8 -8 -29 -17 -47 -9
-19 -20 -50 -24 -69 -4 -20 -14 -63 -23 -96 -37 -147 -34 -254 7 -347 8 -18
17 -44 20 -58 3 -14 12 -50 21 -80 9 -30 16 -71 17 -90 0 -19 3 -28 5 -20 26
77 40 93 121 135 50 26 67 -19 41 -109 -11 -40 -81 -126 -103 -126 -5 0 -23
-14 -40 -31 -35 -38 -38 -78 -8 -146 12 -26 24 -55 27 -63 3 -8 17 -33 31 -55
13 -22 32 -53 41 -70 16 -29 93 -130 144 -189 50 -58 98 -98 100 -83 1 1 3 29
6 62 3 33 12 99 21 146 14 78 14 90 0 117 -32 65 -41 126 -26 177 8 26 22 51
31 56 10 5 18 16 18 24 0 8 9 15 20 15 11 0 20 -4 20 -9 0 -5 8 -17 17 -27 12
-11 19 -38 21 -80 5 -70 -1 -106 -21 -126 -20 -21 -48 -117 -53 -183 -3 -41
-2 -54 5 -40 12 28 62 76 89 86 13 5 43 9 68 9 43 0 44 -1 38 -27 -23 -92 -84
-163 -153 -179 -40 -10 -71 -33 -71 -52 0 -10 18 -31 41 -48 22 -16 46 -33 52
-39 41 -34 195 -125 210 -125 4 0 7 267 7 593 l0 593 28 30 c27 30 108 74 137
74 18 0 19 12 3 28 -6 6 -11 38 -11 71 1 60 12 85 99 226 13 22 27 47 31 55 3
8 14 26 23 40 9 14 28 53 42 88 23 59 27 62 42 47 9 -9 16 -24 16 -33 0 -9 9
-28 20 -42 11 -14 20 -32 20 -42 0 -9 4 -18 8 -20 11 -4 74 -138 96 -205 23
-68 24 -133 3 -164 -21 -29 -22 -49 -2 -49 34 0 135 -60 150 -90 13 -26 15
-110 15 -655 -1 -344 2 -630 5 -635 3 -5 29 -16 59 -24 46 -14 61 -14 120 -2
90 19 256 73 301 99 11 6 38 21 60 32 22 12 57 32 78 44 21 11 42 21 47 21 17
0 11 -25 -10 -48 -11 -12 -20 -25 -20 -29 0 -5 -18 -25 -40 -46 -22 -20 -40
-40 -40 -44 0 -5 -14 -19 -31 -33 -17 -14 -41 -34 -53 -46 -50 -48 -179 -144
-195 -144 -5 0 -11 -4 -13 -8 -1 -5 -24 -20 -49 -34 -67 -38 -79 -44 -129 -66
-101 -46 -140 -62 -154 -62 -7 0 -29 -6 -47 -14 -19 -8 -85 -24 -148 -36 -63
-12 -124 -26 -135 -32 -12 -5 -40 -37 -64 -69 -56 -79 -90 -99 -170 -99 l-64
0 7 32 c12 52 61 107 115 129 8 3 -29 9 -82 12 -53 4 -125 13 -160 21 -34 8
-83 19 -108 25 -25 5 -70 17 -100 27 -30 9 -75 18 -100 20 -95 8 -216 28 -240
41 -30 15 -89 17 -126 3 -43 -17 -117 -14 -155 5 -41 21 -89 64 -89 80 0 20
81 50 132 49 53 -1 55 1 31 28 -25 28 -51 75 -72 133 -6 17 -24 44 -39 60 -44
49 -112 132 -112 138 0 4 -18 30 -40 59 -42 56 -111 184 -137 252 -43 117 -66
192 -88 294 -22 98 -25 139 -25 302 0 197 11 278 61 445 35 116 129 325 168
370 36 43 61 85 61 102 0 32 43 167 62 195 10 14 18 30 18 34 0 4 9 18 21 30
14 15 22 40 25 80 7 71 20 111 48 142 23 26 87 62 109 62 32 0 27 -123 -7
-171 -12 -17 -48 -48 -110 -94 -41 -31 -98 -133 -113 -205 -4 -22 -1 -20 28
15 96 114 305 284 409 331 19 9 37 19 40 23 3 3 16 11 30 17 145 65 220 94
245 94 11 0 27 5 35 10 22 14 60 12 60 -3z m-1924 -3543 c26 -5 32 -14 53 -80
25 -78 37 -96 52 -73 15 24 10 -7 -6 -37 -8 -16 -15 -48 -15 -71 0 -62 -25
-57 -39 7 -6 28 -11 57 -11 65 0 29 -33 95 -47 95 -13 0 -14 -13 -9 -82 4 -46
9 -95 12 -110 5 -25 3 -27 -40 -33 -24 -4 -49 -4 -55 -1 -16 10 -2 33 28 46
27 11 28 14 35 106 7 104 0 129 -40 144 -58 22 3 40 82 24z m274 0 c0 -3 -10
-14 -22 -24 -22 -17 -23 -26 -23 -135 0 -109 1 -118 23 -135 l23 -19 -28 -3
c-16 -2 -47 -1 -71 1 -35 2 -41 6 -31 17 13 16 25 165 15 191 -7 17 -9 16 -27
-6 -14 -17 -19 -19 -19 -8 0 9 4 18 9 21 5 3 12 23 16 43 4 21 11 44 17 51 10
12 118 18 118 6z m2462 -11 c15 -16 2 -30 -32 -35 -24 -3 -25 -6 -28 -88 -4
-115 3 -148 33 -156 40 -10 77 9 89 44 6 17 17 37 24 44 9 10 12 -1 12 -55 l0
-67 -128 0 c-71 0 -131 3 -135 6 -3 3 5 16 18 28 21 19 24 32 28 123 4 113 0
124 -57 137 -43 10 -22 20 52 26 97 7 110 6 124 -7z m477 3 c16 -19 -4 -58
-27 -54 -21 4 -28 34 -12 53 16 19 24 19 39 1z m901 -51 c0 -52 1 -55 19 -45
11 5 38 10 59 10 l40 0 6 -87 c4 -49 9 -101 11 -116 4 -27 3 -28 -27 -25 l-32
3 3 86 c3 93 -6 113 -47 102 -29 -7 -36 -39 -29 -129 l7 -73 -38 2 c-41 2 -40
-2 -21 87 15 74 8 164 -15 189 -26 29 -14 51 29 51 l35 0 0 -55z m494 10 c-2
-26 -1 -27 65 -50 20 -8 -6 -35 -34 -35 -25 0 -35 -22 -35 -82 0 -81 40 -118
62 -56 10 28 12 29 18 12 11 -28 -15 -71 -46 -77 -46 -8 -63 24 -64 118 0 69
-3 82 -20 93 -27 17 -25 30 5 38 15 4 25 13 25 24 0 26 11 51 20 45 4 -2 6
-16 4 -30z m-3852 -72 c35 -37 44 -89 24 -138 -19 -45 -39 -61 -84 -70 -23 -4
-37 -1 -48 10 -8 8 -21 15 -28 15 -28 0 -48 109 -27 150 26 50 42 60 91 60 38
0 51 -5 72 -27z m516 -3 c45 -45 50 -92 15 -148 -34 -56 -71 -69 -123 -46 -50
23 -60 40 -60 107 0 82 26 116 92 116 39 1 51 -4 76 -29z m410 18 c9 -9 15 -9
24 0 7 7 28 12 48 12 47 0 60 -26 60 -119 0 -49 4 -72 15 -81 29 -24 18 -38
-27 -33 -24 3 -44 7 -46 8 -1 1 2 14 9 28 8 17 9 47 3 98 -9 73 -9 74 -38 72
-16 -1 -31 -5 -35 -8 -3 -4 -6 -48 -6 -99 0 -55 -4 -93 -10 -93 -5 -1 -25 -4
-42 -8 -37 -8 -42 3 -13 28 17 14 20 29 20 96 0 61 -3 80 -15 85 -8 3 -15 10
-15 16 0 14 53 13 68 -2z m1528 1 c3 -6 6 -40 5 -75 -1 -38 5 -79 14 -101 8
-20 13 -38 11 -40 -2 -2 -22 -6 -45 -8 -41 -4 -65 10 -40 25 21 14 18 149 -4
183 l-17 27 34 0 c19 0 38 -5 42 -11z m550 -1 c3 -5 -2 -18 -12 -29 -13 -14
-20 -16 -31 -8 -10 9 -13 4 -13 -28 0 -50 -38 -88 -77 -78 -24 6 -53 -8 -53
-26 0 -5 28 -9 63 -9 46 0 68 -5 87 -20 l25 -19 -27 -48 c-25 -45 -29 -48 -72
-51 -54 -4 -106 20 -106 48 0 10 5 22 10 25 14 9 12 43 -2 48 -10 3 -10 11 0
40 9 26 10 42 3 56 -17 31 -13 54 14 83 22 24 30 26 105 25 45 0 83 -4 86 -9z
m-1175 -822 l-3 -154 28 -4 29 -3 -34 -17 c-43 -22 -61 -23 -61 -1 0 15 -1 15
-18 0 -28 -25 -84 -22 -111 7 -30 32 -38 94 -17 134 24 47 80 85 116 80 28 -4
30 -3 30 29 0 23 -5 33 -15 33 -27 0 -16 17 23 33 20 8 37 15 37 16 0 1 -2
-68 -4 -153z m209 -6 c0 -139 1 -150 20 -160 36 -19 21 -30 -40 -30 -59 0 -79
13 -40 25 19 6 20 15 20 141 0 112 -2 134 -15 134 -36 0 6 35 48 39 4 1 7 -66
7 -149z m-1157 31 c11 -11 1 -61 -13 -61 -5 0 -12 9 -15 20 -3 11 -17 23 -30
26 -67 17 -103 -49 -73 -132 13 -37 52 -50 106 -35 41 12 42 -3 2 -24 -47 -24
-105 -20 -129 11 -54 69 -28 166 54 204 23 11 84 5 98 -9z m255 -4 c17 -18 22
-37 24 -102 3 -79 3 -80 28 -76 25 3 25 3 6 -18 -22 -25 -61 -28 -74 -5 -8 14
-10 14 -21 0 -18 -22 -80 -21 -97 2 -32 41 -12 77 64 116 56 28 61 36 36 60
-22 23 -41 20 -69 -10 l-25 -27 0 30 c0 25 5 32 33 41 51 16 72 14 95 -11z
m259 3 c31 24 51 25 81 4 20 -14 22 -24 22 -104 0 -80 2 -89 20 -95 38 -12 20
-25 -35 -25 -52 0 -73 14 -40 26 12 5 15 25 15 90 l0 84 -35 0 c-29 0 -37 -5
-45 -26 -16 -40 -12 -130 5 -144 26 -22 16 -30 -35 -30 -48 0 -67 14 -35 26
12 5 15 25 15 89 0 71 -3 84 -17 88 -13 2 -9 8 17 19 33 14 35 13 38 -4 3 -18
5 -17 29 2z m909 14 c11 -3 28 -19 38 -35 26 -45 9 -59 -70 -59 -60 0 -64 -2
-64 -22 0 -13 9 -38 21 -57 19 -32 22 -33 66 -27 46 6 46 6 28 -14 -13 -14
-31 -20 -60 -20 -34 0 -45 5 -64 31 -47 63 -33 150 31 189 35 21 42 23 74 14z
m300 -7 c7 -7 -8 -67 -17 -67 -4 0 -9 10 -11 21 -4 30 -33 47 -55 33 -33 -21
-25 -41 31 -78 67 -44 80 -75 45 -112 -18 -20 -32 -24 -76 -24 -59 0 -70 10
-54 51 l9 24 11 -27 c18 -47 91 -47 91 1 0 14 -60 71 -75 71 -10 0 -44 44 -45
57 0 6 14 23 32 38 26 22 39 26 71 22 21 -3 41 -7 43 -10z"/>
<path d="M3635 6559 c-53 -21 -150 -66 -175 -80 -8 -5 -34 -18 -57 -30 -24
-12 -43 -25 -43 -30 0 -5 -9 -9 -20 -9 -11 0 -20 -3 -20 -7 -1 -5 -24 -24 -52
-43 -28 -19 -58 -43 -66 -52 -9 -10 -20 -18 -25 -18 -13 0 -141 -134 -201
-209 -147 -185 -227 -352 -293 -611 -24 -97 -26 -122 -27 -320 0 -190 2 -226
22 -310 27 -113 57 -210 82 -265 46 -102 85 -177 97 -187 7 -6 13 -14 13 -19
0 -11 48 -87 67 -107 7 -7 13 -16 13 -20 0 -4 18 -27 40 -52 l40 -44 2 109 c4
169 2 205 -14 218 -30 25 -66 96 -69 133 -5 73 1 112 20 135 l20 24 39 -38
c22 -21 45 -56 52 -77 13 -38 7 -74 -28 -167 -2 -7 1 -13 7 -13 6 0 11 7 11
15 0 9 9 35 20 57 11 23 20 47 20 53 0 5 9 27 20 48 11 20 20 43 20 51 0 8 9
30 19 48 11 18 24 51 30 73 6 22 16 59 22 82 11 35 10 50 -4 95 -55 176 -67
257 -67 443 0 178 2 195 45 375 34 141 137 362 216 462 16 20 29 39 29 42 0 9
85 102 170 183 47 46 83 83 80 83 -3 -1 -27 -10 -55 -21z"/>
<path d="M3150 6555 c-7 -8 -18 -15 -24 -15 -15 0 -50 -64 -44 -82 3 -7 14 5
27 30 25 49 57 59 46 15 -3 -16 -12 -35 -19 -43 -31 -36 -24 -41 8 -6 28 31
36 48 36 78 0 40 -10 48 -30 23z"/>
<path d="M4354 5933 c-8 -25 -27 -60 -109 -198 -79 -132 -93 -195 -52 -233 39
-36 51 -32 48 18 -1 34 6 60 29 105 17 33 40 88 51 123 22 69 40 79 59 30 6
-18 20 -53 30 -78 31 -75 43 -138 37 -185 -4 -25 -3 -45 2 -45 5 0 23 17 41
37 30 33 32 41 27 88 -3 28 -15 73 -28 100 -52 116 -120 255 -125 255 -2 0 -7
-8 -10 -17z"/>
<path d="M4310 5628 l-43 -91 16 -48 c8 -27 11 -51 6 -54 -5 -3 -24 -3 -42 0
-44 8 -138 -17 -188 -49 -47 -32 -53 -56 -6 -28 37 23 185 62 233 62 26 0 33
5 36 22 4 31 25 33 32 3 5 -20 12 -25 40 -25 63 0 246 -53 246 -71 0 -5 5 -9
10 -9 22 0 8 21 -32 46 -50 32 -146 56 -188 48 -38 -8 -48 12 -26 55 20 38 20
64 0 126 -29 87 -36 105 -43 105 -4 0 -27 -41 -51 -92z"/>
<path d="M3189 5385 c-9 -15 18 -244 35 -295 l15 -45 0 91 c1 64 -5 112 -18
155 -11 35 -21 73 -23 84 -2 11 -6 16 -9 10z"/>
<path d="M4200 5374 c-8 -3 -40 -12 -70 -21 -30 -10 -64 -25 -74 -34 -29 -26
-8 -44 86 -74 114 -36 284 -36 394 0 128 42 134 60 37 101 -52 21 -86 27 -143
28 l-75 1 -3 -28 c-4 -35 -26 -30 -30 6 -3 26 -6 27 -55 26 -29 0 -59 -3 -67
-5z"/>
<path d="M4020 4703 l0 -558 53 -21 c103 -41 186 -64 229 -63 40 1 41 2 13 8
-16 4 -44 15 -61 24 -38 19 -97 84 -91 100 6 19 79 39 123 34 45 -5 104 -42
104 -66 0 -9 7 -24 15 -35 12 -16 33 -20 132 -26 65 -3 121 -5 126 -3 4 3 7
265 7 584 -1 503 -3 579 -15 579 -13 0 -15 -52 -15 -380 0 -373 0 -380 -20
-380 -20 0 -20 7 -20 361 l0 360 -22 -3 -23 -3 -5 -474 c-4 -367 -8 -475 -17
-479 -10 -3 -13 95 -13 468 l0 472 -42 -9 c-83 -16 -257 -9 -337 15 -40 11
-81 28 -91 37 -9 8 -20 15 -23 15 -4 0 -7 -251 -7 -557z"/>
<path d="M3360 5214 c-27 -25 -40 -45 -40 -62 0 -30 9 -23 37 27 10 19 24 36
31 39 20 6 14 -37 -9 -70 -23 -32 -23 -43 1 -25 32 25 56 127 30 127 -5 0 -28
-16 -50 -36z"/>
<path d="M3281 5093 c-1 -24 4 -43 9 -43 12 0 12 24 0 60 -7 21 -8 19 -9 -17z"/>
<path d="M3696 4948 c-30 -46 -38 -82 -24 -114 12 -28 13 -28 16 29 2 42 7 57
17 57 17 0 18 -5 17 -75 -1 -50 -1 -50 9 -15 11 35 5 104 -10 129 -7 11 -12 9
-25 -11z"/>
<path d="M3247 4866 c-4 -10 -7 -24 -7 -32 0 -8 -9 -34 -20 -56 -11 -23 -20
-49 -20 -57 0 -9 -11 -36 -25 -60 -14 -23 -25 -48 -25 -53 0 -6 -9 -29 -19
-52 -46 -99 -64 -187 -64 -311 0 -66 3 -129 7 -140 4 -11 39 -47 78 -80 39
-33 76 -66 83 -72 8 -7 16 -13 20 -13 3 0 23 -13 43 -29 50 -40 159 -100 279
-154 30 -13 153 9 212 38 l43 22 -51 51 c-28 28 -51 55 -51 60 0 5 -7 15 -15
22 -9 7 -25 35 -36 61 -24 55 -49 74 -137 105 -80 29 -87 35 -112 100 -29 78
-27 94 10 94 32 0 122 -37 129 -53 2 -5 12 -17 22 -25 11 -9 19 -24 19 -33 0
-9 8 -23 17 -30 15 -13 16 -11 10 11 -4 14 -7 59 -7 101 l0 75 -80 82 c-69 71
-95 104 -145 180 -5 9 -18 25 -27 36 -10 11 -18 25 -18 32 0 6 -6 17 -14 23
-15 13 -66 111 -66 128 0 5 -6 17 -13 27 -13 18 -14 18 -20 2z"/>
<path d="M2985 4680 c-9 -39 2 -117 17 -126 8 -5 9 1 4 17 -4 13 -10 39 -13
58 -5 29 -3 33 13 29 14 -2 21 -15 25 -45 6 -51 15 -62 24 -34 9 29 -11 83
-39 110 l-24 23 -7 -32z"/>
<path d="M3808 4603 c-36 -6 -102 -83 -70 -83 4 0 20 14 35 30 26 28 47 32 47
10 0 -5 -14 -23 -31 -41 -32 -33 -33 -48 -2 -28 24 14 60 67 65 93 3 21 -5 25
-44 19z"/>
<path d="M3683 4475 c0 -22 2 -30 4 -17 2 12 2 30 0 40 -3 9 -5 -1 -4 -23z"/>
<path d="M3660 4265 c0 -72 26 -199 52 -251 30 -61 117 -164 138 -164 23 0 7
45 -30 87 -39 45 -45 62 -41 112 3 28 48 121 59 121 10 0 40 -36 62 -74 28
-48 32 -86 15 -141 -8 -28 -15 -63 -15 -78 0 -25 3 -27 23 -21 12 4 53 24 90
45 38 22 72 39 75 39 4 0 18 9 32 20 14 11 30 20 37 20 14 0 82 42 83 51 0 4
-21 12 -47 19 -155 40 -343 135 -481 243 -19 15 -39 27 -43 27 -5 0 -9 -25 -9
-55z"/>
<path d="M3448 4264 c-11 -11 33 -84 65 -106 45 -32 46 -10 2 27 -28 25 -37
37 -29 45 11 11 44 4 44 -10 0 -4 11 -15 24 -23 22 -15 24 -15 19 2 -9 37
-105 86 -125 65z"/>
<path d="M4210 4176 c0 -23 64 -66 107 -73 48 -7 35 10 -22 30 -21 8 -41 19
-43 25 -5 17 34 15 68 -3 24 -12 30 -13 30 -2 0 26 -25 37 -82 37 -44 0 -58
-4 -58 -14z"/>
<path d="M5195 4121 c-38 -20 -90 -50 -115 -66 -25 -16 -52 -34 -62 -40 -9 -5
-40 -27 -70 -48 -29 -21 -82 -58 -118 -83 -36 -24 -85 -60 -110 -79 -25 -18
-50 -34 -56 -34 -6 -1 -19 -10 -29 -21 -10 -11 -24 -20 -30 -20 -7 0 -18 -7
-25 -15 -16 -19 -17 -19 60 9 108 40 154 60 168 73 7 7 21 13 30 13 14 0 44
17 124 72 15 10 32 18 38 18 5 0 10 4 10 8 0 4 27 27 60 50 33 24 60 47 60 52
0 6 5 10 12 10 6 0 40 29 75 64 88 90 86 95 -22 37z"/>
<path d="M3826 4098 c-20 -29 -21 -102 -1 -118 13 -11 15 -6 15 39 0 28 4 51
9 51 12 0 21 -25 21 -58 0 -44 16 -59 24 -22 6 32 -27 130 -45 130 -4 0 -15
-10 -23 -22z"/>
<path d="M4416 4051 c-19 -7 -19 -8 0 -15 30 -12 226 -20 270 -11 l39 8 -30
13 c-33 14 -246 18 -279 5z"/>
<path d="M4950 4039 c-40 -17 -278 -49 -364 -49 -43 0 -123 7 -177 16 l-98 15
-98 -49 c-54 -27 -116 -59 -138 -72 -22 -13 -53 -30 -70 -38 -16 -9 -45 -25
-63 -37 -30 -20 -31 -23 -15 -36 21 -16 55 -36 98 -57 17 -8 37 -20 45 -27 28
-22 150 -55 204 -55 54 0 192 39 233 66 12 8 29 14 38 14 8 0 15 4 15 9 0 5
14 14 31 21 17 7 36 18 43 24 22 20 107 76 115 76 5 0 11 4 13 8 2 8 92 73
146 107 8 6 22 16 31 23 9 7 27 22 41 32 28 21 12 26 -30 9z"/>
<path d="M3110 4005 c0 -4 14 -27 32 -53 69 -100 167 -169 275 -192 61 -12
109 -9 68 5 -11 3 -29 11 -40 18 -11 6 -33 17 -50 26 -16 8 -34 19 -40 24 -9
7 -34 24 -90 59 -11 7 -22 15 -25 18 -11 11 -106 87 -117 94 -7 4 -13 4 -13 1z"/>
<path d="M3048 3848 c-16 -5 -28 -15 -28 -21 0 -23 68 -57 112 -57 50 0 36 15
-24 25 -25 4 -38 12 -38 22 0 12 7 14 36 9 19 -4 42 -10 50 -13 10 -4 12 0 8
12 -12 31 -65 42 -116 23z"/>
<path d="M3800 3763 c-36 -14 -78 -28 -95 -33 l-30 -7 28 -12 c16 -6 58 -17
95 -25 37 -8 90 -20 118 -26 28 -6 82 -10 119 -8 l69 3 -55 28 c-57 29 -70 36
-136 80 -23 15 -43 27 -45 26 -2 0 -32 -12 -68 -26z"/>
<path d="M4205 3599 c18 -5 33 -5 39 1 7 7 -4 10 -29 9 -40 -1 -40 -1 -10 -10z"/>
<path d="M4093 3543 c-16 -16 -32 -38 -36 -50 -5 -21 -1 -23 31 -23 38 0 102
32 102 50 0 16 -25 11 -50 -10 -27 -23 -50 -26 -50 -5 0 8 16 22 35 31 44 21
53 34 22 34 -13 0 -37 -12 -54 -27z"/>
<path d="M2541 2944 c-40 -51 -22 -164 27 -164 37 0 51 27 52 97 0 53 -3 64
-22 77 -30 21 -33 20 -57 -10z"/>
<path d="M3053 2944 c-45 -51 -23 -164 32 -164 33 0 45 27 45 98 0 44 -5 63
-18 75 -25 23 -33 21 -59 -9z"/>
<path d="M5490 2947 c0 -8 -3 -27 -6 -43 -7 -36 27 -64 52 -43 15 12 19 56 6
75 -12 19 -52 27 -52 11z"/>
<path d="M5460 2725 c0 -20 7 -26 39 -35 46 -12 91 3 91 30 0 18 -42 30 -102
30 -23 0 -28 -4 -28 -25z"/>
<path d="M4335 2145 c-61 -60 -3 -180 70 -147 23 11 25 16 25 86 0 68 -2 74
-22 80 -38 10 -48 7 -73 -19z"/>
<path d="M3719 2079 c-34 -13 -57 -54 -42 -77 26 -42 83 -5 83 53 0 38 -1 38
-41 24z"/>
<path d="M4877 2162 c-29 -32 -21 -42 33 -42 54 0 65 14 32 43 -24 22 -45 21
-65 -1z"/>
</g>
</svg>
